{"title":"Scouts.Guide.to.the.Zombie.Apocalypse.2015.WEBRip.480p.x264.AAC-","uid":12957997,"size":376420593,"categoryP":"video","categoryS":"movies","magnet":"?xt=urn:btih:21d44a68d2e7bfc51e5859f5c8d80048d00de055&amp;dn=Scouts.Guide.to.the.Zombie.Apocalypse.2015.WEBRip.480p.x264.AAC-&amp;tr=udp%3A%2F%2Ftracker.leechers-paradise.org%3A6969&amp;tr=udp%3A%2F%2Fzer0day.ch%3A1337&amp;tr=udp%3A%2F%2Fopen.demonii.com%3A1337&amp;tr=udp%3A%2F%2Ftracker.coppersurfer.tk%3A6969&amp;tr=udp%3A%2F%2Fexodus.desync.com%3A6969","seeders":0,"leechers":2,"uploader":"VYTOP2PDL","files":7,"time":1449809312,"description":"____    ____ ____    ____ .___________.  ______   \r\n     /   /      /   / |           | /  __    \r\n    /   /      /   /  `---|  |----`|  |  |  | \r\n        /     _    _/       |  |     |  |  |  | \r\n       /        |  |         |  |     |  `--'  | \r\n    __/         |__|         |__|      ______/  \r\n                                                  \r\nPresenting Small Encodes with quality for years!\r\n                                                                                                   \r\n                                                                                                   \r\n\r\nScouts.Guide.to.the.Zombie.Apocalypse.2015.WEBRip.480p.x264.AAC-VYTO\r\n\r\n\r\nGenre: Comedy, Horror    \nhttp://www.imdb.com/title/tt1727776/\r\n\r\n\r\nFormat                                   : MPEG-4\r\nFile size                                : 351 MiB\r\nDuration                                 : 1h 33mn\r\nOverall bit rate                         : 527 Kbps\r\n\r\nVideo\r\nFormat                                   : AVC\r\nBit rate                                 : 492 Kbps\r\nWidth                                    : 720 pixels\r\nHeight                                   : 304 pixels\r\nDisplay aspect ratio                     : 2.35:1\r\nFrame rate mode                          : Constant\r\nFrame rate                               : 23.976 fps\r\nBit depth                                : 8 bits\r\nStream size                              : 328 MiB (93%)\r\nWriting library                          : x264\r\n\r\nAudio\r\nFormat                                   : AAC\r\nBit rate mode                            : Variable\r\nBit rate                                 : 32.0 Kbps\r\nChannel(s)                               : 2 channels\r\nChannel positions                        : Front: L R\r\nSampling rate                            : 48.0 KHz\r\nStream size                              : 21.2 MiB (6%)\r\nLanguage                                 : English\r\n\r\nSubtitle                                 : Yes (English)\r\n\r\nScreen Shots: (Click to view)\r\n \nhttp://ititli.com/5Q \nhttp://ititli.com/5S \nhttp://ititli.com/5Z \nhttp://ititli.com/5c \nhttp://ititli.com/5i \nhttp://ititli.com/5p\r\n\r\n\r\n----------------------------------------------------------------------------------------------------\r\n\r\n\r\nEncoder Notes: Looking For Early Access To Anything You Can Provide WEBDL, DVDScr, DVDR, BluRay,\r\nDirect Audio, Music Releases and Seedboxes. If You Got anything to offer please contact us.\r\n\r\nSupport us by donating BC - 1FgwdzPsd1y25Gea8wP1qni35uGCtmkRCD\r\n\r\nSend some love!\r\nFind us and join us!","torrent":{"xt":"urn:btih:21d44a68d2e7bfc51e5859f5c8d80048d00de055","amp;dn":"Scouts.Guide.to.the.Zombie.Apocalypse.2015.WEBRip.480p.x264.AAC-","amp;tr":["udp%3A%2F%2Ftracker.leechers-paradise.org%3A6969","udp%3A%2F%2Fzer0day.ch%3A1337","udp%3A%2F%2Fopen.demonii.com%3A1337","udp%3A%2F%2Ftracker.coppersurfer.tk%3A6969","udp%3A%2F%2Fexodus.desync.com%3A6969"],"infoHash":"21d44a68d2e7bfc51e5859f5c8d80048d00de055","infoHashBuffer":{"type":"Buffer","data":[33,212,74,104,210,231,191,197,30,88,89,245,200,216,0,72,208,13,224,85]},"announce":[],"urlList":[]}}